# AST/ASF file generated using VICON BodyLanguage
# -----------------------------------------------
:version 1.10
:name VICON
:units
  mass 1.0
  length 0.45
  angle deg
:documentation
   .ast/.asf automatically generated from VICON data using
   VICON BodyBuilder and BodyLanguage model FoxedUp or BRILLIANT.MOD
:root
   order TX TY TZ RX RY RZ
   axis XYZ
   position 0 0 0  
   orientation 0 0 0 
:bonedata
  begin
     id 1 
     name lhipjoint
     direction 0.653368 -0.678499 0.335782 
     length 2.51848 
     axis 0 0 0  XYZ
  end
  begin
     id 2 
     name lfemur
     direction 0.34202 -0.939693 0  
     length 6.57749  
     axis 0 0 20  XYZ
    dof rx ry rz
    limits (-160.0 20.0)
           (-70.0 70.0)
           (-60.0 70.0)
  end
  begin
     id 3 
     name ltibia
     direction 0.34202 -0.939693 0   
     length 7.94618   
     axis 0 0 20   XYZ
    dof rx
    limits (-10.0 170.0)
  end
  begin
     id 4 
     name lfoot
     direction 0.0811271 -0.222895 0.971461   
     length 2.31339   
     axis -90 7.62852e-016 20   XYZ
    dof rx rz
    limits (-45.0 90.0)
           (-70.0 20.0)
  end
  begin
     id 5 
     name ltoes
     direction 1.53568e-011 -4.21885e-011 1   
     length 1.15935   
     axis -90 7.62852e-016 20   XYZ
    dof rx
    limits (-90.0 20.0)
  end
  begin
     id 6 
     name rhipjoint
     direction -0.640058 -0.688614 0.340788   
     length 2.48149  
     axis 0 0 0  XYZ 
  end
  begin
     id 7 
     name rfemur
     direction -0.34202 -0.939693 0   
     length 6.57875   
     axis 0 0 -20   XYZ
    dof rx ry rz
    limits (-160.0 20.0)
           (-70.0 70.0)
           (-70.0 60.0)
  end
  begin
     id 8 
     name rtibia
     direction -0.34202 -0.939693 0   
     length 7.977   
     axis 0 0 -20   XYZ
    dof rx
    limits (-10.0 170.0)
 end
 begin
     id 9 
     name rfoot
     direction -0.0979793 -0.269196 0.958089   
     length 2.19857  
     axis -90 -7.62852e-016 -20   XYZ
    dof rx rz
    limits (-45.0 90.0)
           (-20.0 70.0)
  end
  begin
     id 10 
     name rtoes
     direction -1.53556e-011 -4.21868e-011 1   
     length 1.09838   
     axis -90 -7.62852e-016 -20   XYZ
    dof rx
    limits (-90.0 20.0)
  end
  begin
     id 11 
     name lowerback
     direction 0.0149039 0.998517 -0.0523597   
     length 2.10809   
     axis 0 0 0   XYZ
    dof rx ry rz
    limits (-20.0 45.0)
           (-30.0 30.0)
           (-30.0 30.0)
  end
  begin
     id 12 
     name upperback
     direction -0.00882659 0.999418 -0.0329624   
     length 2.1102   
     axis 0 0 0   XYZ
    dof rx ry rz
    limits (-20.0 45.0)
           (-30.0 30.0)
           (-30.0 30.0)
  end
  begin
     id 13 
     name thorax
     direction -0.0165585 0.999826 -0.0085833   
     length 2.11039   
     axis 0 0 0   XYZ
    dof rx ry rz
    limits (-20.0 45.0)
           (-30.0 30.0)
           (-30.0 30.0)
  end
  begin
     id 14 
     name lowerneck
     direction -0.0130877 0.999911 0.00260353   
     length 1.73253   
     axis 0 0 0   XYZ
    dof rx ry rz
    limits (-20.0 45.0)
           (-30.0 30.0)
           (-30.0 30.0)
  end
  begin
     id 15 
     name upperneck
     direction -0.0348454 0.928205 -0.370435   
     length 1.66692   
     axis 0 0 0   XYZ
    dof rx ry rz
    limits (-20.0 45.0)
           (-30.0 30.0)
           (-30.0 30.0)
  end
  begin
     id 16
     name head
     direction -0.00807754 0.992494 -0.122026  
     length 1.72765  
     axis 0 0 0   XYZ
    dof rx ry rz
    limits (-20.0 45.0)
           (-30.0 30.0)
           (-30.0 30.0)
  end
  begin
     id 17 
     name lclavicle
     direction 0.987582 0.144023 0.0627671  
     length 3.49235  
     axis 0 0 0   XYZ
    dof ry rz
    limits (-20.0 10.0)
           (0.0 20.0)
  end
  begin
     id 18 
     name lhumerus
     direction 1 -4.48958e-011 -1.45183e-018   
     length 5.41917   
     axis 180 -30 -90   XYZ
    dof rx ry rz
    limits (-60.0 90.0)
           (-90.0 90.0)
           (-90.0 90.0)
  end
  begin
     id 19
     name lradius
     direction 1 -4.48999e-011 5.75106e-027   
     length 2.44373   
     axis 180 -30 -90   XYZ
    dof rx
    limits (-10.0 170.0)
  end
  begin
     id 20
     name lwrist
     direction 1 -4.48987e-011 1.53461e-026   
     length 1.22186   
     axis -1.09697e-014 90 90   XYZ
    dof ry
    limits (-180.0 0.0)
 end
  begin
     id 21 
     name lhand
     direction 1 -4.48881e-011 3.06923e-026   
     length 0.727502   
     axis -1.95843e-014 90 90   XYZ
    dof rx rz
    limits (-90.0 90.0)
           (-45.0 45.0)
  end
  begin
     id 22 
     name lfingers
     direction 1 -4.48907e-011 6.13845e-026   
     length 0.586531   
     axis -3.91686e-014 90 90   XYZ
    dof rx
    limits (0.0 90.0)
  end
  begin
     id 23
     name lthumb
     direction 0.707107 -6.3487e-011 0.707107   
     length 0.842145   
     axis -90 45 2.85299e-015   XYZ
    dof rx rz
    limits (-45.0 45.0)
           (-45.0 45.0)
  end
  begin
     id 24 
     name rclavicle
     direction -0.980998 0.169556 0.0943023   
     length 3.29272  
     axis 0 0 0   XYZ 
    dof ry rz
    limits (-10.0 20.0)
           (-20.0 0.0)
  end
  begin
     id 25 
     name rhumerus
     direction -1 -1.83355e-005 2.45537e-005  
     length 5.58976   
     axis 180 30 90   XYZ
    dof rx ry rz
    limits (-90.0 60.0)
           (-90.0 90.0)
           (-90.0 90.0)
  end
  begin
     id 26 
     name rradius
     direction -1 -4.48967e-011 5.97228e-027   
     length 2.4806   
     axis 180 30 90   XYZ
    dof rx
    limits (-10.0 170.0)
  end
  begin
     id 27 
     name rwrist
     direction -1 -4.48963e-011 1.53461e-026   
     length 1.2403   
     axis -1.09697e-014 -90 -90   XYZ
    dof ry
    limits (-180.0 0.0)
  end
  begin
     id 28
     name rhand
     direction -1 -4.48881e-011 3.06923e-026   
     length 0.816009   
     axis -1.95843e-014 -90 -90   XYZ
    dof rx rz
    limits (-90.0 90.0)
           (-45.0 45.0)
  end
  begin
     id 29
     name rfingers
     direction -1 -4.49018e-011 6.13845e-026   
     length 0.657887   
     axis -3.91686e-014 -90 -90   XYZ
    dof rx
    limits (0.0 90.0)
  end
  begin
     id 30
     name rthumb
     direction -0.707107 -6.34872e-011 0.707107   
     length 0.944599   
     axis -90 -45 -2.85299e-015   XYZ
    dof rx rz
    limits (-45.0 45.0)
           (-45.0 45.0)
  end
:hierarchy
  begin
    root lhipjoint rhipjoint lowerback
    lhipjoint lfemur
    lfemur ltibia
    ltibia lfoot
    lfoot ltoes
    rhipjoint rfemur
    rfemur rtibia
    rtibia rfoot
    rfoot rtoes
    lowerback upperback
    upperback thorax
    thorax lowerneck lclavicle rclavicle
    lowerneck upperneck
    upperneck head
    lclavicle lhumerus
    lhumerus lradius
    lradius lwrist
    lwrist lhand lthumb
    lhand lfingers
    rclavicle rhumerus
    rhumerus rradius
    rradius rwrist
    rwrist rhand rthumb
    rhand rfingers
  end

#!OML:ASF F:\VICON\USERDATA\INSTALL\rory3\rory3.ASF
:FULLY-SPECIFIED
:DEGREES
58
root 4.7794 16.343 27.8063 27.8494 -53.4895 -7.20473
lowerback -16.0509 2.94314 -1.12857
upperback -7.71247 3.81382 -0.337132
thorax 0.741517 1.83428 0.89871
lowerneck -12.125 -0.584151 0.250262
upperneck 41.911 -3.4736 3.06441
head 17.5501 -1.33051 0.630104
rclavicle 4.74909e-015 0
rhumerus -130.577 -41.4499 76.5135
rradius 3.92292
rwrist 135.95
rhand 13.5829 12.8228
rfingers 7.12502
rthumb 38.5161 -12.8341
lclavicle 4.74909e-015 0
lhumerus -41.7084 15.5663 59.0693
lradius 19.9509
lwrist -23.1797
lhand 28.5625 19.8972
lfingers 7.12502
lthumb 52.41 39.7561
rfemur -29.6119 -15.534 31.9885
rtibia 57.2421
rfoot 41.6056 -29.7852
rtoes 42.9173
lfemur -48.4837 0.476883 -28.2862
ltibia 48.4388
lfoot -44.8109 24.8143
ltoes 20.8736
59
root 4.76201 16.3554 27.7445 28.8993 -51.9584 -8.56702
lowerback -15.5052 2.49822 -0.854234
upperback -7.86022 3.17477 0.253816
thorax 0.293611 1.52392 1.23059
lowerneck -12.1682 -0.537634 0.293337
upperneck 41.9182 -3.4177 3.06816
head 17.5637 -1.29986 0.633688
rclavicle 6.16916e-014 -9.14409e-015
rhumerus -130.177 -41.6186 76.5758
rradius 3.56943
rwrist 136.146
rhand 13.6455 12.7572
rfingers 7.12502
rthumb 38.5751 -12.8832
lclavicle 6.16916e-014 -9.14409e-015
lhumerus -41.6839 15.6603 58.5749
lradius 19.9227
lwrist -23.974
lhand 28.6261 19.9288
lfingers 7.12502
lthumb 52.4676 39.7526
rfemur -29.4554 -15.7381 33.5765
rtibia 56.993
rfoot 40.1442 -31.7554
rtoes 44.5281
lfemur -48.7688 0.742909 -27.0876
ltibia 48.5749
lfoot -43.5371 24.4417
ltoes 20.004
60
root 4.76819 16.3518 27.7402 29.3564 -51.4689 -9.16566
lowerback -15.2195 2.4742 -0.441916
upperback -7.97021 3.0849 0.387584
thorax 0.044725 1.47156 1.10982
lowerneck -12.0366 -0.552449 0.256007
upperneck 41.922 -3.43595 3.08525
head 17.5328 -1.31364 0.645847
rclavicle 9.41836e-014 7.55382e-015
rhumerus -129.448 -41.4634 76.5777
rradius 2.63121
rwrist 136.315
rhand 13.4388 12.1865
rfingers 7.12502
rthumb 38.3802 -13.5083
lclavicle 9.41836e-014 7.55382e-015
lhumerus -41.5245 15.4265 58.2297
lradius 19.7106
lwrist -24.6914
lhand 28.2945 19.6572
lfingers 7.12502
lthumb 52.1672 39.663
rfemur -29.4529 -16.1795 34.3023
rtibia 56.789
rfoot 42.5969 -27.9469
rtoes 41.0048
lfemur -48.9282 0.686051 -26.5534
ltibia 48.7209
lfoot -43.4097 24.2094
ltoes 19.8047
61
root 4.77244 16.3572 27.7462 29.039 -51.5092 -8.62613
lowerback -15.1954 2.4414 -0.766707
upperback -8.04181 3.08415 0.269558
thorax -0.0550198 1.47875 1.16563
lowerneck -12.0216 -0.577062 0.313419
upperneck 41.9348 -3.44768 2.98307
head 17.532 -1.32282 0.586618
rclavicle -4.61367e-014 1.11319e-014
rhumerus -129.377 -41.5615 76.849
rradius 2.71096
rwrist 136.468
rhand 13.4683 11.6896
rfingers 7.12502
rthumb 38.408 -13.9974
lclavicle -4.61367e-014 1.11319e-014
lhumerus -41.2809 14.6606 58.2629
lradius 19.6233
lwrist -24.767
lhand 27.9117 19.7411
lfingers 7.12502
lthumb 51.82 39.953
rfemur -29.4525 -15.92 33.7557
rtibia 56.6931
rfoot 40.184 -31.6152
rtoes 44.7299
lfemur -49.0075 0.747323 -27.0104
ltibia 48.717
lfoot -43.1412 24.2116
ltoes 19.2237
62
root 4.77257 16.3509 27.7608 28.957 -51.5032 -8.50767
lowerback -15.2497 2.47043 -0.801004
upperback -8.00949 3.12929 0.216453
thorax 0.00779497 1.50125 1.13938
lowerneck -12.075 -0.591089 0.362755
upperneck 41.8581 -3.44663 2.9253
head 17.4982 -1.31944 0.550981
rclavicle -6.50927e-014 -4.65156e-014
rhumerus -129.478 -41.655 77.1908
rradius 2.98362
rwrist 136.721
rhand 13.4899 11.4471
rfingers 7.12502
rthumb 38.4284 -14.2343
lclavicle -6.50927e-014 -4.65156e-014
lhumerus -41.0062 14.3662 58.0227
lradius 19.5904
lwrist -25.3075
lhand 27.9436 19.9319
lfingers 7.12502
lthumb 51.849 40.1268
rfemur -29.5087 -16.512 33.9377
rtibia 56.5018
rfoot 44.8232 -23.5209
rtoes 36.4916
lfemur -48.9805 0.634345 -27.1203
ltibia 48.7563
lfoot -43.2584 24.1108
ltoes 19.5626
63
root 4.75454 16.371 27.8022 28.4091 -51.5925 -7.97683
lowerback -15.5696 2.46086 -0.911451
upperback -7.85028 3.13749 0.14086
thorax 0.342433 1.50481 1.14242
lowerneck -11.9783 -0.568157 0.186296
upperneck 41.7388 -3.32412 2.89537
head 17.4012 -1.30173 0.59132
rclavicle -2.28012e-014 -4.57205e-014
rhumerus -128.932 -41.7309 77.3899
rradius 2.40291
rwrist 137.014
rhand 13.3632 10.9168
rfingers 7.12502
rthumb 38.3087 -14.7977
lclavicle -2.28012e-014 -4.57205e-014
lhumerus -40.8489 14.328 57.6629
lradius 19.4564
lwrist -25.8145
lhand 27.7579 19.826
lfingers 7.12502
lthumb 51.6804 40.1196
rfemur -28.8726 -16.3005 32.8045
rtibia 56.4569
rfoot 40.3174 -30.7234
rtoes 44.5996
lfemur -48.3982 0.475076 -27.5905
ltibia 48.5646
lfoot -43.4576 24.0391
ltoes 19.6049
64
root 4.76902 16.3629 27.7782 28.8742 -51.1788 -8.44977
lowerback -15.1323 2.37552 -0.741858
upperback -8.06168 2.99295 0.370541
thorax -0.111332 1.43513 1.24047
lowerneck -11.8758 -0.558355 -0.0588028
upperneck 41.7948 -3.21898 2.85393
head 17.4056 -1.30562 0.636269
rclavicle -4.16392e-014 1.03368e-014
rhumerus -128.486 -41.9444 77.5739
rradius 2.4571
rwrist 137.116
rhand 13.4644 11.0523
rfingers 7.12502
rthumb 38.4043 -14.6358
lclavicle -4.16392e-014 1.03368e-014
lhumerus -40.9848 14.9368 56.7815
lradius 19.4362
lwrist -26.7586
lhand 27.5485 20.075
lfingers 7.12502
lthumb 51.4901 40.4787
rfemur -29.1402 -16.3483 33.6456
rtibia 56.2371
rfoot 42.7559 -27.286
rtoes 40.8906
lfemur -48.7217 0.223719 -27.0171
ltibia 48.5816
lfoot -43.4079 23.6963
ltoes 20.5825
65
root 4.76511 16.3719 27.7997 28.7368 -51.1376 -8.3357
lowerback -15.1607 2.36234 -0.674272
upperback -8.06601 2.96646 0.359653
thorax -0.0959773 1.41914 1.18855
lowerneck -11.8022 -0.536515 -0.122164
upperneck 41.7459 -3.14581 2.82367
head 17.3556 -1.29084 0.646954
rclavicle 1.05853e-014 1.59028e-014
rhumerus -128.44 -42.2399 77.8096
rradius 3.02615
rwrist 137.255
rhand 13.5101 11.2969
rfingers 7.12502
rthumb 38.4474 -14.3792
lclavicle 1.05853e-014 1.59028e-014
lhumerus -41.1015 15.2229 56.0099
lradius 19.603
lwrist -27.4317
lhand 27.506 20.4637
lfingers 7.12502
lthumb 51.4514 40.8896
rfemur -28.8211 -16.312 33.2205
rtibia 56.1213
rfoot 40.6097 -30.4999
rtoes 44.3237
lfemur -48.4517 0.0714719 -27.1114
ltibia 48.4442
lfoot -43.4266 23.685
ltoes 20.1554
66
root 4.76098 16.3713 27.8173 28.5113 -51.242 -8.1187
lowerback -15.1754 2.33911 -0.835767
upperback -8.03395 2.95764 0.36027
thorax -0.062837 1.41965 1.27988
lowerneck -11.6661 -0.489341 -0.252794
upperneck 41.5907 -3.04427 2.89466
head 17.2315 -1.26138 0.720757
rclavicle 1.89405e-014 7.95139e-016
rhumerus -128.43 -42.589 78.1173
rradius 3.44868
rwrist 137.336
rhand 13.5441 10.7214
rfingers 7.12502
rthumb 38.4795 -14.9457
lclavicle 1.89405e-014 7.95139e-016
lhumerus -41.0429 15.1961 55.4844
lradius 19.5297
lwrist -27.9256
lhand 27.6505 20.5359
lfingers 7.12502
lthumb 51.5827 40.8862
rfemur -28.7071 -16.9304 33.1199
rtibia 55.91
rfoot 43.8352 -24.9536
rtoes 39.0607
lfemur -48.2838 -0.0626189 -27.301
ltibia 48.4677
lfoot -43.4157 23.9297
ltoes 19.5779
67
root 4.76738 16.3842 27.802 28.6091 -51.1854 -8.21414
lowerback -14.811 2.31099 -1.00005
upperback -8.14498 2.93785 0.475424
thorax -0.387162 1.4205 1.47069
lowerneck -11.4515 -0.47305 -0.638884
upperneck 41.4073 -2.99719 3.17129
head 17.083 -1.26732 0.924524
rclavicle -6.00081e-014 -4.21423e-014
rhumerus -128.333 -42.8675 78.4987
rradius 3.73766
rwrist 137.327
rhand 13.637 10.4048
rfingers 7.12502
rthumb 38.5672 -15.2378
lclavicle -6.00081e-014 -4.21423e-014
lhumerus -40.8617 15.0012 55.085
lradius 19.2358
lwrist -28.2234
lhand 27.5701 20.4968
lfingers 7.12502
lthumb 51.5097 40.8893
rfemur -28.7298 -16.3091 33.1414
rtibia 55.8457
rfoot 41.7686 -29.1408
rtoes 42.9974
lfemur -48.3538 -0.17155 -27.1029
ltibia 48.3887
lfoot -43.3469 24.0132
ltoes 19.4804
68
root 4.78276 16.3861 27.7755 29.021 -50.9544 -8.65855
lowerback -14.2653 2.32419 -0.937752
upperback -8.32226 2.94331 0.631691
thorax -0.868866 1.42946 1.57131
lowerneck -11.4398 -0.536161 -1.04635
upperneck 41.4047 -3.07842 3.43304
head 17.0951 -1.32898 1.10374
rclavicle 3.7943e-014 1.98785e-014
rhumerus -128.528 -43.1976 79.1011
rradius 4.59091
rwrist 137.466
rhand 14.1072 11.0263
rfingers 7.12502
rthumb 39.0106 -14.4907
lclavicle 3.7943e-014 1.98785e-014
lhumerus -40.6931 15.0257 54.511
lradius 19.1001
lwrist -28.6348
lhand 27.3966 20.6613
lfingers 7.12502
lthumb 51.3518 41.1442
rfemur -29.0245 -16.3002 33.9409
rtibia 55.7068
rfoot 43.9593 -25.8358
rtoes 39.2923
lfemur -48.6599 -0.283501 -26.5829
ltibia 48.4122
lfoot -43.0629 24.1128
ltoes 19.2935
69
root 4.79318 16.3994 27.7739 29.2452 -51.2917 -8.66902
lowerback -14.1095 2.45901 -1.10483
upperback -8.49154 3.13568 0.582176
thorax -1.14462 1.53243 1.62619
lowerneck -11.4828 -0.595781 -1.24656
upperneck 41.5094 -3.1754 3.56529
head 17.1772 -1.38275 1.18487
rclavicle 4.61118e-014 -2.46493e-014
rhumerus -128.62 -43.4569 79.565
rradius 5.30699
rwrist 137.799
rhand 14.322 11.2167
rfingers 7.12502
rthumb 39.2131 -14.2419
lclavicle 4.61118e-014 -2.46493e-014
lhumerus -40.5291 14.6963 54.0433
lradius 18.9906
lwrist -28.9391
lhand 27.2445 20.8272
lfingers 7.12502
lthumb 51.2135 41.3886
rfemur -29.259 -15.3759 33.801
rtibia 55.6903
rfoot 42.1339 -29.4574
rtoes 42.6059
lfemur -48.9029 -0.374775 -26.533
ltibia 48.3446
lfoot -43.0914 24.2896
ltoes 19.1548
70
root 4.79164 16.406 27.787 29.2157 -51.2052 -8.46409
lowerback -14.1897 2.50521 -1.17247
upperback -8.55683 3.20371 0.452527
thorax -1.17016 1.56584 1.53943
lowerneck -11.4038 -0.677544 -1.1094
upperneck 41.4074 -3.31253 3.52113
head 17.1012 -1.42253 1.11538
rclavicle 8.79746e-014 2.06736e-014
rhumerus -128.56 -43.3956 79.9245
rradius 5.55475
rwrist 138.328
rhand 14.3249 10.9755
rfingers 7.12502
rthumb 39.2158 -14.4824
lclavicle 8.79746e-014 2.06736e-014
lhumerus -40.1396 14.4448 53.4007
lradius 18.7705
lwrist -29.616
lhand 27.1608 20.9296
lfingers 7.12502
lthumb 51.1372 41.5341
rfemur -29.2638 -15.6661 33.7423
rtibia 55.5193
rfoot 42.5757 -28.4883
rtoes 41.8005
lfemur -48.9621 -0.343804 -26.7394
ltibia 48.3538
lfoot -42.7643 24.1768
ltoes 18.5934
71
root 4.78638 16.4295 27.7978 29.6209 -50.9131 -9.00745
lowerback -14.1871 2.52754 -0.733286
upperback -8.50065 3.18478 0.494613
thorax -1.08769 1.54094 1.33678
lowerneck -11.517 -0.669466 -0.787855
upperneck 41.3066 -3.29078 3.30624
head 17.0603 -1.38769 0.961855
rclavicle 3.95395e-014 2.50469e-014
rhumerus -128.986 -43.7132 80.4253
rradius 6.26186
rwrist 138.881
rhand 14.7253 11.1955
rfingers 7.12502
rthumb 39.593 -14.152
lclavicle 3.95395e-014 2.50469e-014
lhumerus -39.7061 14.2431 52.7702
lradius 18.65
lwrist -29.9767
lhand 26.832 20.9772
lfingers 7.12502
lthumb 50.8376 41.7488
rfemur -28.9506 -15.4227 33.9224
rtibia 55.39
rfoot 38.7779 -33.6079
rtoes 46.6355
lfemur -48.8386 -0.319688 -26.2887
ltibia 48.3041
lfoot -42.4574 24.1057
ltoes 18.0987
